<svg width="163" height="36" viewBox="0 0 163 36" fill="none" xmlns="http://www.w3.org/2000/svg">
<g id="Group 698">
<path id="Vector" d="M46.0195 24.5642V11.5999H49.4501V16.4266H53.3195V11.5999H56.75V24.5642H53.3195V19.4184H49.4501V24.5642H46.0195ZM62.3673 24.8036C61.277 24.8036 60.4858 24.4379 59.9938 23.7066C59.5018 22.9619 59.2559 21.9714 59.2559 20.7347V14.5918H62.6865V20.296C62.6865 20.9343 62.7663 21.3596 62.9258 21.5724C63.0986 21.7852 63.3513 21.8915 63.6838 21.8915C64.0027 21.8915 64.2688 21.8251 64.4816 21.6922C64.6943 21.5592 64.9071 21.3331 65.1198 21.014V14.5918H68.5504V24.5642H65.7579L65.5186 23.2479H65.4388C65.04 23.7266 64.5945 24.1056 64.1025 24.3848C63.6239 24.664 63.0455 24.8036 62.3673 24.8036ZM74.4964 28.673C73.7386 28.673 73.0404 28.5866 72.4021 28.4137C71.764 28.254 71.2521 27.9948 70.8665 27.6357C70.494 27.2769 70.308 26.798 70.308 26.1997C70.308 25.4153 70.7733 24.777 71.7041 24.285V24.2052C71.4492 24.0167 71.2268 23.7876 71.0459 23.5272C70.8731 23.2479 70.7866 22.9021 70.7866 22.4899C70.7866 22.1442 70.8864 21.8051 71.0858 21.4728C71.2986 21.1403 71.5712 20.8545 71.9035 20.6152V20.5353C71.5445 20.296 71.2255 19.9569 70.9463 19.518C70.6802 19.066 70.5473 18.554 70.5473 17.9824C70.5473 17.1579 70.7467 16.4799 71.1457 15.948C71.5578 15.4027 72.0897 15.0039 72.7412 14.7512C73.3929 14.4854 74.0842 14.3523 74.8155 14.3523C75.4005 14.3523 75.9324 14.4321 76.4111 14.5918H80.121V17.0649H78.685C78.7247 17.1846 78.758 17.3375 78.7846 17.5235C78.8245 17.7098 78.8444 17.9026 78.8444 18.102C78.8444 18.8865 78.665 19.5248 78.306 20.0168C77.9469 20.4954 77.4617 20.8479 76.8499 21.0738C76.2382 21.3 75.5602 21.4129 74.8155 21.4129C74.4832 21.4129 74.1108 21.3664 73.6986 21.2732C73.539 21.4195 73.4593 21.6123 73.4593 21.8516C73.4593 22.0644 73.5657 22.2173 73.7785 22.3105C74.0044 22.4035 74.3635 22.45 74.8555 22.45H76.3514C77.6012 22.45 78.5652 22.6562 79.2434 23.0683C79.9348 23.4673 80.2805 24.1254 80.2805 25.0429C80.2805 25.761 80.0412 26.3925 79.5626 26.9378C79.0971 27.4828 78.4323 27.9084 77.5679 28.2141C76.7036 28.5201 75.6798 28.673 74.4964 28.673ZM74.8155 19.3785C75.1347 19.3785 75.3939 19.2655 75.5933 19.0394C75.7929 18.8135 75.8925 18.461 75.8925 17.9824C75.8925 17.517 75.7929 17.1779 75.5933 16.9651C75.3939 16.7391 75.1347 16.6262 74.8155 16.6262C74.4964 16.6262 74.2371 16.7391 74.0377 16.9651C73.8382 17.1779 73.7386 17.517 73.7386 17.9824C73.7386 18.461 73.8382 18.8135 74.0377 19.0394C74.2371 19.2655 74.4964 19.3785 74.8155 19.3785ZM75.0548 26.5587C75.6133 26.5587 76.0787 26.4723 76.451 26.2995C76.8234 26.1398 77.0094 25.9205 77.0094 25.6412C77.0094 25.3754 76.8899 25.2091 76.6506 25.1427C76.4244 25.0762 76.0987 25.0429 75.6732 25.0429H74.8954C74.4964 25.0429 74.1906 25.0297 73.9779 25.0029C73.7785 24.9898 73.6056 24.9632 73.4593 24.9233C73.22 25.1626 73.1003 25.4019 73.1003 25.6412C73.1003 25.9604 73.2797 26.1931 73.6388 26.3394C74.0112 26.4857 74.4832 26.5587 75.0548 26.5587ZM85.3845 28.673C84.6265 28.673 83.9285 28.5866 83.2902 28.4137C82.6519 28.254 82.14 27.9948 81.7544 27.6357C81.3821 27.2769 81.1959 26.798 81.1959 26.1997C81.1959 25.4153 81.6614 24.777 82.5921 24.285V24.2052C82.3371 24.0167 82.1147 23.7876 81.934 23.5272C81.761 23.2479 81.6745 22.9021 81.6745 22.4899C81.6745 22.1442 81.7743 21.8051 81.9737 21.4728C82.1865 21.1403 82.4591 20.8545 82.7916 20.6152V20.5353C82.4326 20.296 82.1134 19.9569 81.8342 19.518C81.5682 19.066 81.4352 18.554 81.4352 17.9824C81.4352 17.1579 81.6348 16.4799 82.0336 15.948C82.4458 15.4027 82.9777 15.0039 83.6293 14.7512C84.2808 14.4854 84.9722 14.3523 85.7035 14.3523C86.2886 14.3523 86.8205 14.4321 87.2992 14.5918H91.0089V17.0649H89.5729C89.6128 17.1846 89.6459 17.3375 89.6727 17.5235C89.7124 17.7098 89.7324 17.9026 89.7324 18.102C89.7324 18.8865 89.5529 19.5248 89.1939 20.0168C88.835 20.4954 88.3496 20.8479 87.7379 21.0738C87.1263 21.3 86.4481 21.4129 85.7035 21.4129C85.3711 21.4129 84.9989 21.3664 84.5865 21.2732C84.4271 21.4195 84.3472 21.6123 84.3472 21.8516C84.3472 22.0644 84.4536 22.2173 84.6664 22.3105C84.8925 22.4035 85.2514 22.45 85.7434 22.45H87.2393C88.4891 22.45 89.4531 22.6562 90.1313 23.0683C90.8227 23.4673 91.1684 24.1254 91.1684 25.0429C91.1684 25.761 90.9291 26.3925 90.4505 26.9378C89.985 27.4828 89.3202 27.9084 88.456 28.2141C87.5918 28.5201 86.5679 28.673 85.3845 28.673ZM85.7035 19.3785C86.0226 19.3785 86.2819 19.2655 86.4814 19.0394C86.6808 18.8135 86.7806 18.461 86.7806 17.9824C86.7806 17.517 86.6808 17.1779 86.4814 16.9651C86.2819 16.7391 86.0226 16.6262 85.7035 16.6262C85.3845 16.6262 85.125 16.7391 84.9256 16.9651C84.7263 17.1779 84.6265 17.517 84.6265 17.9824C84.6265 18.461 84.7263 18.8135 84.9256 19.0394C85.125 19.2655 85.3845 19.3785 85.7035 19.3785ZM85.9429 26.5587C86.5014 26.5587 86.9666 26.4723 87.3391 26.2995C87.7113 26.1398 87.8975 25.9205 87.8975 25.6412C87.8975 25.3754 87.7778 25.2091 87.5385 25.1427C87.3125 25.0762 86.9866 25.0429 86.5611 25.0429H85.7833C85.3845 25.0429 85.0785 25.0297 84.8658 25.0029C84.6664 24.9898 84.4935 24.9632 84.3472 24.9233C84.1079 25.1626 83.9882 25.4019 83.9882 25.6412C83.9882 25.9604 84.1678 26.1931 84.5269 26.3394C84.8991 26.4857 85.3711 26.5587 85.9429 26.5587ZM92.6425 24.5642V14.5918H96.073V24.5642H92.6425ZM94.3577 13.3551C93.7993 13.3551 93.347 13.2022 93.0013 12.8964C92.6557 12.5773 92.4828 12.1584 92.4828 11.6398C92.4828 11.1213 92.6557 10.709 93.0013 10.4032C93.347 10.084 93.7993 9.92456 94.3577 9.92456C94.9162 9.92456 95.3683 10.084 95.714 10.4032C96.0596 10.709 96.2325 11.1213 96.2325 11.6398C96.2325 12.1584 96.0596 12.5773 95.714 12.8964C95.3683 13.2022 94.9162 13.3551 94.3577 13.3551ZM98.3883 24.5642V14.5918H101.181L101.42 15.7883H101.5C101.899 15.4027 102.351 15.0704 102.856 14.7912C103.374 14.4986 103.973 14.3523 104.651 14.3523C105.755 14.3523 106.546 14.7247 107.025 15.4694C107.517 16.2007 107.762 17.1846 107.762 18.4211V24.5642H104.332V18.86C104.332 18.2217 104.252 17.7962 104.093 17.5834C103.933 17.3707 103.68 17.2643 103.335 17.2643C103.016 17.2643 102.75 17.3307 102.537 17.4639C102.324 17.5968 102.085 17.783 101.819 18.0223V24.5642H98.3883ZM113.627 28.673C112.869 28.673 112.171 28.5866 111.533 28.4137C110.895 28.254 110.383 27.9948 109.997 27.6357C109.625 27.2769 109.439 26.798 109.439 26.1997C109.439 25.4153 109.904 24.777 110.835 24.285V24.2052C110.58 24.0167 110.357 23.7876 110.176 23.5272C110.004 23.2479 109.917 22.9021 109.917 22.4899C109.917 22.1442 110.017 21.8051 110.216 21.4728C110.429 21.1403 110.702 20.8545 111.034 20.6152V20.5353C110.675 20.296 110.356 19.9569 110.077 19.518C109.811 19.066 109.678 18.554 109.678 17.9824C109.678 17.1579 109.877 16.4799 110.276 15.948C110.688 15.4027 111.22 15.0039 111.872 14.7512C112.523 14.4854 113.215 14.3523 113.946 14.3523C114.531 14.3523 115.063 14.4321 115.542 14.5918H119.251V17.0649H117.815C117.855 17.1846 117.889 17.3375 117.915 17.5235C117.955 17.7098 117.975 17.9026 117.975 18.102C117.975 18.8865 117.796 19.5248 117.436 20.0168C117.077 20.4954 116.592 20.8479 115.98 21.0738C115.369 21.3 114.691 21.4129 113.946 21.4129C113.614 21.4129 113.241 21.3664 112.829 21.2732C112.67 21.4195 112.59 21.6123 112.59 21.8516C112.59 22.0644 112.696 22.2173 112.909 22.3105C113.135 22.4035 113.494 22.45 113.986 22.45H115.482C116.732 22.45 117.696 22.6562 118.374 23.0683C119.065 23.4673 119.411 24.1254 119.411 25.0429C119.411 25.761 119.172 26.3925 118.693 26.9378C118.228 27.4828 117.563 27.9084 116.698 28.2141C115.834 28.5201 114.81 28.673 113.627 28.673ZM113.946 19.3785C114.265 19.3785 114.524 19.2655 114.724 19.0394C114.923 18.8135 115.023 18.461 115.023 17.9824C115.023 17.517 114.923 17.1779 114.724 16.9651C114.524 16.7391 114.265 16.6262 113.946 16.6262C113.627 16.6262 113.368 16.7391 113.168 16.9651C112.969 17.1779 112.869 17.517 112.869 17.9824C112.869 18.461 112.969 18.8135 113.168 19.0394C113.368 19.2655 113.627 19.3785 113.946 19.3785ZM114.185 26.5587C114.744 26.5587 115.209 26.4723 115.582 26.2995C115.954 26.1398 116.14 25.9205 116.14 25.6412C116.14 25.3754 116.02 25.2091 115.781 25.1427C115.555 25.0762 115.229 25.0429 114.804 25.0429H114.026C113.627 25.0429 113.321 25.0297 113.108 25.0029C112.909 24.9898 112.736 24.9632 112.59 24.9233C112.35 25.1626 112.231 25.4019 112.231 25.6412C112.231 25.9604 112.41 26.1931 112.769 26.3394C113.142 26.4857 113.614 26.5587 114.185 26.5587ZM125.157 24.5642V11.5999H133.614V14.472H128.588V16.9451H132.896V19.8172H128.588V24.5642H125.157ZM137.365 24.8036C136.74 24.8036 136.202 24.664 135.75 24.3848C135.318 24.1001 134.968 23.7085 134.733 23.2479C134.493 22.7825 134.374 22.2772 134.374 21.7321C134.374 20.6948 134.799 19.8839 135.65 19.2987C136.501 18.7003 137.884 18.3015 139.799 18.102C139.719 17.4106 139.253 17.0649 138.403 17.0649C138.043 17.0649 137.664 17.1379 137.266 17.2842C136.867 17.4172 136.408 17.6233 135.889 17.9026L134.693 15.6688C135.397 15.2432 136.109 14.9175 136.827 14.6914C137.557 14.4656 138.316 14.3513 139.081 14.3523C140.384 14.3523 141.401 14.7247 142.132 15.4694C142.864 16.2007 143.229 17.384 143.229 19.0195V24.5642H140.437L140.198 23.6068H140.118C139.719 23.9659 139.293 24.2585 138.841 24.4844C138.403 24.6972 137.911 24.8036 137.365 24.8036ZM138.562 22.1708C138.841 22.1708 139.074 22.1109 139.26 21.9913C139.446 21.8584 139.626 21.6922 139.799 21.4928V20.1364C138.988 20.2561 138.422 20.4355 138.103 20.6749C137.798 20.9144 137.644 21.1736 137.644 21.4528C137.644 21.9315 137.95 22.1708 138.562 22.1708ZM149.973 24.8036C149.029 24.8036 148.178 24.5974 147.42 24.1852C146.662 23.7731 146.057 23.1813 145.605 22.4101C145.166 21.6257 144.947 20.6816 144.947 19.5779C144.947 18.4744 145.193 17.5369 145.685 16.7657C146.19 15.9811 146.849 15.3829 147.66 14.9706C148.471 14.5584 149.348 14.3523 150.292 14.3523C150.891 14.3523 151.429 14.4455 151.908 14.6315C152.4 14.8177 152.832 15.0704 153.204 15.3895L151.609 17.5834C151.396 17.3974 151.203 17.2711 151.03 17.2046C150.859 17.1381 150.676 17.1044 150.492 17.1048C149.854 17.1048 149.355 17.3307 148.996 17.783C148.637 18.2217 148.457 18.8201 148.457 19.5779C148.457 20.3359 148.644 20.9409 149.016 21.393C149.388 21.8317 149.84 22.0512 150.372 22.0512C150.651 22.0512 150.924 21.9913 151.19 21.8716C151.462 21.7426 151.723 21.589 151.968 21.4129L153.284 23.6467C152.792 24.0856 152.247 24.3914 151.649 24.5642C151.05 24.7237 150.492 24.8036 149.973 24.8036ZM158.897 24.8036C157.926 24.8036 157.048 24.5974 156.264 24.1852C155.493 23.7731 154.881 23.1813 154.429 22.4101C153.977 21.6257 153.751 20.6816 153.751 19.5779C153.751 18.5009 153.977 17.5768 154.429 16.8056C154.895 16.021 155.493 15.4161 156.224 14.9906C156.955 14.565 157.727 14.3523 158.538 14.3523C159.522 14.3523 160.333 14.5718 160.971 15.0105C161.623 15.436 162.101 16.0144 162.407 16.7457C162.726 17.477 162.886 18.2882 162.886 19.1791C162.886 19.4715 162.866 19.7575 162.826 20.0368C162.799 20.3026 162.773 20.4954 162.746 20.6152H157.062C157.221 21.2135 157.507 21.6323 157.919 21.8716C158.332 22.0977 158.817 22.2107 159.375 22.2107C160.014 22.2107 160.692 22.0113 161.41 21.6123L162.527 23.6467C161.995 24.019 161.397 24.305 160.732 24.5044C160.067 24.7038 159.455 24.8036 158.897 24.8036ZM157.022 18.3812H159.974C159.974 17.9956 159.874 17.6632 159.675 17.384C159.488 17.0914 159.136 16.9451 158.618 16.9451C158.245 16.9451 157.913 17.0583 157.62 17.2842C157.328 17.5104 157.128 17.876 157.022 18.3812Z" fill="white"/>
<path id="Vector_2" d="M38.6455 26.4643C38.5444 26.0826 38.3806 25.7206 38.1609 25.3926C38.208 25.2197 38.2437 25.0443 38.2678 24.8671C38.4237 23.7419 38.0338 22.7118 37.2986 21.9146C36.9003 21.4793 36.4735 21.192 36.0214 21.0155C36.3182 19.7459 36.4684 18.4466 36.4692 17.1427C36.4692 16.5474 36.4355 15.9641 36.379 15.3894C36.3494 15.1025 36.3138 14.8161 36.2722 14.5306C36.1427 13.6885 35.9506 12.8571 35.6976 12.0434C35.5317 11.5088 35.3398 10.9826 35.1227 10.4667C34.7972 9.70274 34.4171 8.96312 33.9853 8.25363C33.702 7.78171 33.3935 7.32533 33.0612 6.8865C32.8984 6.66489 32.7287 6.44851 32.5521 6.23767C32.029 5.60191 31.4608 5.00492 30.8513 4.45142C30.6491 4.26535 30.4411 4.08571 30.2274 3.91274C30.017 3.73729 29.802 3.56746 29.5827 3.40343C29.1411 3.07483 28.6847 2.76654 28.2152 2.47952C25.6204 0.903577 22.5776 0 19.3253 0C9.85634 0 2.18168 7.67484 2.18168 17.1435C2.18143 18.4637 2.3344 19.7794 2.63752 21.0643C2.23082 21.2409 1.84089 21.516 1.47957 21.9142C0.744506 22.7108 0.354381 23.7374 0.510469 24.8624C0.534004 25.0412 0.569779 25.2182 0.617226 25.3922C0.39763 25.7204 0.233879 26.0826 0.132582 26.4643C-0.0933587 27.3231 -0.0189862 28.0975 0.268147 28.7759C-0.0438397 29.6629 0.0341093 30.6073 0.440615 31.4284C0.736221 32.0281 1.1593 32.4918 1.68066 32.9066C2.30068 33.3994 3.07678 33.8183 4.01312 34.2199C5.13002 34.6963 6.4932 35.1438 7.11322 35.308C8.71477 35.7228 10.2504 35.9856 11.8069 35.9983C14.0242 36.019 15.9338 35.4974 17.3011 34.163C17.9727 34.2453 18.6486 34.2866 19.3253 34.2864C20.0402 34.2849 20.7544 34.2397 21.4638 34.1516C22.8278 35.4944 24.7447 36.0207 26.9702 35.9994C28.5264 35.9871 30.062 35.7243 31.6594 35.3089C32.2836 35.1448 33.6464 34.6972 34.7639 34.221C35.7002 33.8185 36.4761 33.3997 37.1005 32.9076C37.6179 32.493 38.0406 32.029 38.3364 31.4293C38.747 30.6082 38.821 29.6638 38.513 28.7768C38.7975 28.0984 38.8713 27.3223 38.6455 26.4643ZM37.0566 28.7184C37.3712 29.3155 37.3914 29.9901 37.1137 30.6184C36.6927 31.5707 35.6469 32.3207 33.6159 33.126C32.3531 33.627 31.1965 33.9471 31.1863 33.9501C29.5158 34.3833 28.005 34.6033 26.6972 34.6033C24.5316 34.6033 22.9202 34.0058 21.8982 32.8257C20.17 33.12 18.4052 33.1299 16.6737 32.8552C15.6506 34.0158 14.0481 34.6033 11.9007 34.6033C10.5927 34.6033 9.08211 34.3833 7.41165 33.9501C7.4013 33.9471 6.24542 33.627 4.98203 33.126C2.95101 32.3207 1.90509 31.5711 1.48428 30.6184C1.20656 29.9901 1.2267 29.3155 1.54132 28.7184C1.57051 28.6631 1.60158 28.6088 1.6349 28.5567C1.44632 28.2735 1.31985 27.9534 1.26376 27.6179C1.20769 27.2824 1.22329 26.9386 1.30955 26.6095C1.43457 26.1346 1.69289 25.7396 2.04348 25.4558C1.87466 25.1783 1.76386 24.8695 1.71775 24.5479C1.61683 23.8486 1.84879 23.1503 2.37109 22.5811C2.7776 22.1381 3.35243 21.8943 3.98902 21.8943H4.00597C3.52609 20.3562 3.28275 18.7541 3.28427 17.1429C3.28427 8.3553 10.4084 1.231 19.1969 1.231C27.9856 1.231 35.1096 8.35474 35.1096 17.1429C35.1107 18.7584 34.8657 20.3646 34.383 21.9063C34.4598 21.8988 34.5351 21.8948 34.6089 21.8948C35.2453 21.8948 35.8203 22.1385 36.2268 22.5815C36.7488 23.1503 36.9813 23.8492 36.8802 24.5483C36.8341 24.8699 36.7233 25.1789 36.5545 25.4564C36.905 25.74 37.1634 26.135 37.2884 26.61C37.3744 26.9391 37.3901 27.2828 37.334 27.6185C37.2778 27.954 37.1515 28.2739 36.963 28.5573C36.9964 28.6088 37.0278 28.6631 37.0566 28.7184Z" fill="white"/>
<path id="Vector_3" d="M36.9628 28.5571C37.1513 28.2738 37.2776 27.9539 37.3337 27.6184C37.3898 27.2826 37.3742 26.939 37.2882 26.6099C37.1631 26.1351 36.9048 25.74 36.5542 25.4563C36.7229 25.1788 36.8338 24.87 36.88 24.5484C36.9809 23.8491 36.7489 23.1508 36.2266 22.5816C35.8201 22.1385 35.2451 21.8947 34.6087 21.8947C34.5347 21.8947 34.4596 21.8985 34.3827 21.9062C34.8649 20.3645 35.1095 18.7583 35.108 17.143C35.108 8.35555 27.9839 1.23108 19.1961 1.23108C10.4083 1.23108 3.28346 8.35479 3.28346 17.143C3.28193 18.7541 3.52527 20.3562 4.00515 21.8943H3.98821C3.35181 21.8943 2.77697 22.1382 2.37047 22.5812C1.84854 23.15 1.6162 23.8487 1.71712 24.548C1.7632 24.8696 1.874 25.1784 2.04285 25.4559C1.69227 25.7397 1.43394 26.1347 1.30911 26.6097C1.22291 26.9388 1.20736 27.2826 1.26351 27.6184C1.31965 27.9539 1.4462 28.274 1.63484 28.5571C1.60114 28.6093 1.57026 28.6635 1.54126 28.7189C1.22683 29.3159 1.2065 29.9906 1.48422 30.6189C1.90503 31.571 2.95095 32.3213 4.98197 33.1264C6.24479 33.6275 7.40142 33.9475 7.41159 33.9505C9.08205 34.3838 10.5927 34.6039 11.9005 34.6039C14.048 34.6039 15.6503 34.0164 16.6737 32.8557C18.4051 33.1304 20.1699 33.1204 21.8982 32.8261C22.92 34.0063 24.5315 34.6039 26.6972 34.6039C28.005 34.6039 29.5158 34.3838 31.1862 33.9505C31.1964 33.9475 32.3525 33.6275 33.6159 33.1264C35.6469 32.3213 36.6928 31.571 37.1136 30.6189C37.3913 29.9906 37.3712 29.3159 37.0566 28.7189C37.0278 28.663 36.9961 28.6089 36.9628 28.5571ZM15.9414 31.0387C15.8533 31.1929 15.759 31.3434 15.6584 31.4897C15.3939 31.877 15.046 32.1728 14.6423 32.3929C13.8701 32.8137 12.8931 32.9609 11.9003 32.9609C10.3323 32.9609 8.72469 32.594 7.82356 32.3601C7.77931 32.3486 2.30043 30.8011 2.99407 29.4839C3.1108 29.2625 3.30304 29.174 3.5448 29.174C4.52143 29.174 6.29979 30.6283 7.06423 30.6283C7.23481 30.6283 7.35529 30.5554 7.40444 30.3782C7.73017 29.2099 2.45388 28.7189 2.89823 27.0273C2.97674 26.728 3.18932 26.6065 3.4885 26.6065C4.77957 26.6063 7.67764 28.877 8.28372 28.877C8.33023 28.877 8.36356 28.8635 8.38163 28.8349L8.38954 28.8219C8.67385 28.3521 8.51079 28.0106 6.56168 26.8168L6.37452 26.7029C4.22996 25.4047 2.72444 24.6237 3.58076 23.6917C3.67923 23.584 3.81875 23.5364 3.98839 23.5364C4.18967 23.5364 4.43312 23.6038 4.70124 23.7165C5.83396 24.1942 7.40387 25.497 8.05967 26.0652C8.25303 26.2335 8.36695 26.3363 8.36695 26.3363C8.36695 26.3363 9.19728 27.1998 9.69943 27.1998C9.81504 27.1998 9.91295 27.1544 9.97941 27.0416C10.3356 26.4414 6.67258 23.6657 6.46603 22.5206C6.32613 21.7445 6.56431 21.3515 7.00509 21.3515C7.21446 21.3515 7.47015 21.4406 7.75239 21.6196C8.62791 22.1754 10.3183 25.0803 10.9372 26.2102C11.1447 26.589 11.4989 26.7491 11.818 26.7491C12.4512 26.7491 12.9462 26.1196 11.876 25.3198C10.2675 24.1161 10.832 22.1489 11.5996 22.0278C11.6324 22.0227 11.6655 22.0201 11.6984 22.0199C12.3966 22.0199 12.7046 23.2231 12.7046 23.2231C12.7046 23.2231 13.6071 25.4896 15.1576 27.0388C16.5647 28.4451 16.761 29.5993 15.9414 31.0387ZM20.9553 31.3042L20.8749 31.3138L20.7376 31.3296C20.6655 31.337 20.5934 31.3441 20.5209 31.3509L20.4501 31.3573L20.3857 31.3628L20.294 31.3701C20.2603 31.3726 20.2266 31.3752 20.1929 31.3773L20.092 31.384L20.0698 31.3854L19.9903 31.3901L19.9566 31.3918L19.8624 31.3965L19.7531 31.401L19.6536 31.4044L19.5874 31.4063H19.5539C19.5331 31.4063 19.5126 31.4074 19.4919 31.4076H19.459C19.4382 31.4076 19.4177 31.4076 19.397 31.4087L19.3128 31.4097H19.195C19.1025 31.4097 19.0105 31.4087 18.9184 31.407L18.8438 31.4053C18.8227 31.4053 18.8015 31.4042 18.7804 31.4036L18.7015 31.4012L18.6032 31.3974L18.5149 31.3936L18.4919 31.3927L18.4078 31.3882C18.3844 31.3869 18.3611 31.3857 18.3379 31.3842L18.2835 31.381C18.2152 31.3767 18.1468 31.3718 18.0785 31.3665L18.0069 31.3609L17.9165 31.3532L17.8109 31.3434C17.752 31.3379 17.693 31.3319 17.6341 31.3253H17.6313C18.4917 29.4057 18.0566 27.6131 16.3178 25.8756C15.1776 24.7369 14.4188 23.0549 14.2616 22.6857C13.943 21.5927 13.0997 20.3777 11.6994 20.3777C11.581 20.3779 11.4629 20.3873 11.346 20.4058C10.7324 20.5022 10.1961 20.8554 9.81353 21.3867C9.40025 20.8725 8.99826 20.4637 8.63487 20.2327C8.08697 19.8855 7.54038 19.7093 7.00753 19.7093C6.34289 19.7093 5.74848 19.9823 5.33425 20.4775L5.3239 20.4901L5.30055 20.392L5.29961 20.3879C5.22083 20.0508 5.15465 19.7108 5.10116 19.3689C5.10116 19.3664 5.10115 19.3642 5.10002 19.3619L5.08835 19.2845C5.08204 19.2427 5.07589 19.2007 5.0699 19.1589C5.065 19.1241 5.06011 19.0893 5.05559 19.0546C5.05107 19.02 5.04618 18.9852 5.04203 18.9503C5.03751 18.9153 5.03337 18.8805 5.02923 18.8456C5.02526 18.8125 5.02144 18.7794 5.01775 18.7462L5.01663 18.7377C4.99965 18.5849 4.9851 18.4318 4.97293 18.2785L4.96634 18.1898C4.96446 18.1655 4.96277 18.1411 4.96126 18.1164C4.96126 18.1108 4.96051 18.1049 4.96013 18.0997L4.95394 18.0014C4.95168 17.9658 4.94996 17.9302 4.94808 17.8946C4.9462 17.8592 4.94431 17.8236 4.94281 17.7879L4.93904 17.6947L4.93791 17.6664L4.93509 17.5802L4.93304 17.5071C4.93304 17.4779 4.9317 17.4486 4.93113 17.4194L4.92963 17.3273C4.92925 17.2966 4.92963 17.2661 4.92887 17.2354C4.92793 17.2045 4.92887 17.1739 4.92887 17.143C4.92887 9.26289 11.3175 2.87422 19.1984 2.87422C27.0792 2.87422 33.4677 9.26251 33.4677 17.143V17.3273C33.4677 17.358 33.4669 17.3889 33.4662 17.4194C33.4662 17.445 33.4652 17.47 33.4645 17.4956C33.4645 17.5184 33.4635 17.541 33.4626 17.563C33.4626 17.5918 33.4609 17.6205 33.46 17.6493V17.6517C33.4575 17.7142 33.4549 17.7767 33.4522 17.8393L33.4511 17.86L33.4462 17.9534L33.4417 18.0274C33.4312 18.2026 33.4174 18.3779 33.4006 18.5529V18.5553C33.3976 18.5881 33.3942 18.621 33.3907 18.6538C33.3824 18.73 33.3739 18.8063 33.3654 18.8825L33.3558 18.9592L33.344 19.0492C33.3398 19.0821 33.3353 19.1149 33.3306 19.1476C33.3255 19.1844 33.3201 19.2209 33.3148 19.2574L33.3016 19.3436L33.2862 19.4416C33.2809 19.4741 33.2756 19.5065 33.2694 19.5391C33.263 19.5715 33.2581 19.6039 33.2525 19.6364C33.2412 19.7012 33.2295 19.7658 33.2169 19.8304C33.1918 19.959 33.1657 20.0872 33.138 20.2152C33.131 20.247 33.1239 20.279 33.1165 20.3109C32.7149 19.9205 32.1832 19.708 31.5965 19.708C31.0642 19.708 30.5171 19.884 29.9694 20.2314C29.6058 20.4622 29.2042 20.8712 28.7905 21.3854C28.4074 20.8539 27.8711 20.5008 27.2583 20.4043C27.1413 20.386 27.0231 20.3766 26.9047 20.3764C25.504 20.3764 24.6613 21.5914 24.3425 22.6844C24.1845 23.0536 23.4257 24.7354 22.2842 25.876C20.5467 27.6078 20.1082 29.3926 20.9553 31.3042ZM35.6866 27.4617L35.681 27.4785C35.677 27.4892 35.6731 27.4999 35.6687 27.5105C35.6619 27.5265 35.6548 27.5421 35.6473 27.5577C35.629 27.595 35.6083 27.6312 35.5855 27.6658C35.5541 27.7127 35.5196 27.7575 35.4821 27.7997C35.4735 27.8095 35.4652 27.8191 35.4554 27.8287C35.4422 27.8432 35.4281 27.8573 35.4142 27.8714C35.1605 28.1228 34.7742 28.3429 34.3374 28.5451C34.2878 28.5675 34.2378 28.5899 34.1869 28.6123L34.1365 28.6347C34.1028 28.6496 34.0692 28.6645 34.0339 28.679C33.9994 28.6937 33.9648 28.7082 33.9301 28.7225L33.825 28.766C33.5793 28.8671 33.3276 28.9633 33.0819 29.0585L32.977 29.0992L32.8731 29.1399C32.8042 29.1668 32.736 29.1937 32.6688 29.2207L32.5688 29.261L32.4707 29.3012L32.4223 29.3214C32.3903 29.335 32.3587 29.3481 32.3274 29.3617C31.6048 29.6716 31.0851 29.987 31.1943 30.3784C31.1973 30.3895 31.2007 30.4001 31.2045 30.4102C31.2143 30.4392 31.2277 30.4667 31.2442 30.4923C31.254 30.5078 31.2653 30.5223 31.2779 30.5355C31.4063 30.6688 31.64 30.6477 31.9347 30.5419C31.9586 30.5332 31.9831 30.524 32.0077 30.5142C32.0247 30.5078 32.0414 30.501 32.0584 30.4942L32.0838 30.4835C32.1512 30.4549 32.2226 30.423 32.2956 30.3882C32.3139 30.3797 32.3323 30.3715 32.3508 30.3617C32.711 30.1856 33.1194 29.9482 33.5245 29.7322C33.5867 29.6985 33.649 29.6663 33.7109 29.6343C33.8122 29.5818 33.9145 29.5311 34.0177 29.4828C34.4014 29.3024 34.7619 29.1743 35.0521 29.1743C35.188 29.1743 35.3083 29.2022 35.4083 29.2662L35.4251 29.2773C35.4757 29.3131 35.5198 29.357 35.5558 29.4074C35.564 29.4193 35.5727 29.4315 35.58 29.4442C35.5879 29.4571 35.5955 29.4705 35.6026 29.4841C35.7459 29.756 35.626 30.0378 35.3454 30.314C35.076 30.5791 34.6569 30.8392 34.1803 31.08C34.1451 31.0979 34.1095 31.1157 34.0738 31.1331C32.6558 31.8293 30.7993 32.3537 30.7733 32.3603C30.2785 32.4885 29.5709 32.657 28.7739 32.783L28.6559 32.8013L28.6367 32.8041C28.4559 32.8312 28.2746 32.8551 28.0929 32.8758L28.0762 32.8775C27.7457 32.9152 27.4068 32.9425 27.0673 32.954H27.0622C26.9402 32.9585 26.8184 32.9605 26.6964 32.9605H26.556C26.3699 32.9579 26.1841 32.9496 25.9986 32.9353C25.9943 32.9353 25.9898 32.9353 25.9853 32.9344C25.919 32.9293 25.8525 32.9231 25.7864 32.9157C25.6727 32.9035 25.5592 32.8884 25.446 32.8707C25.402 32.8634 25.3549 32.8557 25.3095 32.8478C25.2888 32.844 25.2683 32.8402 25.2478 32.8361L25.2429 32.8352C25.1775 32.8227 25.1126 32.809 25.0478 32.7941C25.0103 32.7856 24.9727 32.7772 24.9356 32.7672L24.9134 32.7613C24.8949 32.7568 24.8768 32.7519 24.8588 32.747L24.8488 32.7444L24.7906 32.7276C24.7695 32.7216 24.7486 32.7154 24.7275 32.7092L24.72 32.7069L24.6652 32.6902C24.6445 32.6838 24.624 32.677 24.6034 32.6704C24.5865 32.6648 24.5697 32.6589 24.5528 32.6535L24.5157 32.6405C24.4799 32.628 24.4445 32.6149 24.4091 32.6013L24.3756 32.5883L24.3479 32.5772C24.2947 32.5557 24.2416 32.5333 24.189 32.5098L24.154 32.493L24.1482 32.4904C24.1358 32.4846 24.1235 32.4787 24.1111 32.4735C24.0868 32.4618 24.0627 32.4497 24.0388 32.4375L24.0316 32.4339L23.997 32.4157C23.9354 32.3836 23.875 32.3494 23.8159 32.3129L23.7835 32.2931C23.7667 32.2829 23.7515 32.2726 23.7355 32.2622L23.6933 32.2341C23.678 32.224 23.6628 32.2136 23.6479 32.2029L23.6208 32.1837C23.5922 32.1632 23.5641 32.1423 23.5364 32.1206C23.5218 32.1093 23.5073 32.0976 23.4928 32.0869C23.4606 32.0611 23.4291 32.0346 23.3981 32.0073L23.3967 32.0061C23.3664 31.98 23.3369 31.9529 23.3081 31.9252L23.3065 31.9233C23.2915 31.909 23.2768 31.8947 23.2621 31.8798C23.2476 31.8649 23.2329 31.8502 23.2188 31.8354C23.2045 31.8203 23.1902 31.805 23.1763 31.7894C23.1627 31.7747 23.1495 31.7599 23.1363 31.7448L23.1318 31.7397C23.0638 31.6608 23.0002 31.5782 22.9413 31.4921L22.9179 31.4577C22.9025 31.4349 22.8872 31.4119 22.8722 31.3889L22.8277 31.3206C22.8059 31.2873 22.7846 31.2536 22.7639 31.2197C22.749 31.1956 22.7344 31.1715 22.7199 31.1472C22.7076 31.1265 22.6954 31.106 22.6837 31.0856C22.6771 31.0745 22.6709 31.0632 22.6647 31.0519C22.6585 31.0402 22.6511 31.0284 22.6445 31.0165L22.634 30.9979C22.6304 30.9917 22.6293 30.9898 22.6274 30.9856C22.6146 30.9632 22.6022 30.9404 22.5901 30.9173C22.5847 30.9073 22.5792 30.8971 22.5734 30.8872L22.5564 30.8548L22.5397 30.8226L22.5073 30.7572C22.502 30.7465 22.4969 30.7358 22.4918 30.7251C22.4807 30.7019 22.4702 30.6791 22.4596 30.6563C22.4555 30.6471 22.4512 30.6379 22.4474 30.6287C22.4329 30.5972 22.4192 30.5654 22.4062 30.5332C22.3973 30.5119 22.3892 30.4908 22.3806 30.4697C22.3563 30.4076 22.3335 30.3449 22.3126 30.2815C22.3064 30.2626 22.3002 30.244 22.2947 30.2252C22.2811 30.1824 22.2689 30.1393 22.258 30.0958C22.2446 30.0452 22.2328 29.9939 22.2228 29.9425C22.2164 29.9122 22.2107 29.8817 22.206 29.851C22.2009 29.8207 22.1966 29.7904 22.193 29.7603C22.1853 29.7002 22.1799 29.64 22.1767 29.5795C22.1767 29.5696 22.1757 29.5594 22.1755 29.5494C22.1746 29.5294 22.174 29.5095 22.1738 29.4895C22.1633 28.6852 22.5705 27.9115 23.441 27.0415C24.9913 25.4924 25.8939 23.2257 25.8939 23.2257C25.8939 23.2257 25.9182 23.1306 25.9689 22.9939C25.9858 22.9485 26.0035 22.9033 26.0222 22.8587C26.0434 22.8083 26.0662 22.7584 26.0907 22.7094L26.0979 22.6951C26.1293 22.6326 26.1634 22.5718 26.2005 22.5125C26.2089 22.4987 26.2172 22.485 26.227 22.4714C26.2545 22.4304 26.2837 22.3907 26.3144 22.3521C26.3381 22.3225 26.3633 22.2939 26.3899 22.2668C26.4799 22.1741 26.5825 22.0984 26.6987 22.058L26.7134 22.0532C26.7231 22.05 26.7328 22.047 26.7427 22.0442C26.7544 22.0412 26.7661 22.0384 26.7778 22.0359L26.783 22.035C26.8077 22.0301 26.8324 22.0267 26.8574 22.025H26.8597C26.8726 22.025 26.8856 22.0237 26.899 22.0237C26.9323 22.0239 26.9655 22.0265 26.9984 22.0316C27.1381 22.0536 27.2712 22.1368 27.3857 22.2653L27.4012 22.2833C27.4384 22.327 27.4723 22.3737 27.5025 22.4227C27.5251 22.459 27.5463 22.4972 27.5665 22.5373C27.5746 22.5543 27.5823 22.5697 27.59 22.5863C27.5938 22.5947 27.5975 22.603 27.6011 22.6117C27.6086 22.6285 27.6156 22.6454 27.6226 22.6631C27.6619 22.764 27.6924 22.8681 27.7139 22.9743C27.7367 23.089 27.7499 23.2054 27.7536 23.3223C27.7549 23.3737 27.7549 23.4256 27.7536 23.4784C27.7527 23.4983 27.7517 23.5185 27.7502 23.5386C27.7348 23.7625 27.686 23.9828 27.6055 24.1923C27.5974 24.2131 27.5885 24.2341 27.5802 24.2552C27.5397 24.352 27.4927 24.4458 27.4396 24.5361C27.4093 24.5877 27.3765 24.639 27.3415 24.6898L27.32 24.7203C27.237 24.8363 27.1443 24.9451 27.043 25.0456C26.9433 25.1456 26.8363 25.2381 26.7232 25.3226C26.6096 25.4064 26.5032 25.4994 26.4049 25.6005C26.122 25.8976 26.0561 26.1595 26.1197 26.3582C26.1272 26.3806 26.1361 26.4026 26.1462 26.4239C26.1698 26.47 26.2003 26.5124 26.2368 26.5493L26.2468 26.5593C26.2571 26.5692 26.2681 26.5788 26.2792 26.5881L26.2905 26.5973C26.318 26.6184 26.347 26.6372 26.3773 26.6536C26.3859 26.6583 26.394 26.663 26.404 26.6675C26.4456 26.6882 26.4891 26.7048 26.5339 26.7174L26.5464 26.7206L26.5631 26.7251L26.5778 26.7287L26.5934 26.7321L26.609 26.7353L26.6239 26.7378C26.635 26.7398 26.6463 26.7415 26.6574 26.743L26.6684 26.7445L26.6878 26.7466L26.6998 26.7477L26.7198 26.7492H26.7312L26.752 26.7502H26.8173L26.8359 26.7492L26.8574 26.7479L26.8836 26.7455L26.908 26.7425C26.9135 26.7425 26.9192 26.741 26.9248 26.74C27.011 26.7274 27.095 26.7031 27.1745 26.6677C27.1914 26.6606 27.2082 26.6527 27.2236 26.6444C27.2567 26.6278 27.2889 26.6092 27.3198 26.5886C27.3629 26.5604 27.4036 26.5286 27.4418 26.4939L27.4684 26.4687C27.4725 26.4646 27.4769 26.4606 27.4808 26.4563C27.5068 26.4303 27.5313 26.4028 27.554 26.374C27.5943 26.3232 27.6301 26.2691 27.6612 26.2123C28.0297 25.5423 28.4158 24.8822 28.8193 24.2328L28.8747 24.1441L28.9306 24.0553C28.9586 24.0105 28.9867 23.966 29.0148 23.9222L29.0432 23.8779L29.0999 23.7896C29.1759 23.6719 29.2522 23.5556 29.329 23.4403L29.3864 23.3545C29.5017 23.1839 29.6167 23.0178 29.7304 22.8599L29.7873 22.7819C29.911 22.6109 30.04 22.4439 30.1738 22.2809L30.2271 22.2172C30.2358 22.2065 30.2439 22.1962 30.2535 22.1858L30.3056 22.1254C30.3143 22.1154 30.3226 22.1056 30.3316 22.096L30.3821 22.0389L30.4075 22.0114C30.432 21.9849 30.4568 21.9587 30.4821 21.9327C30.499 21.916 30.5146 21.899 30.531 21.8834C30.6265 21.7857 30.7317 21.6981 30.8453 21.6223L30.8714 21.6055L30.898 21.5886C30.9149 21.578 30.9321 21.5678 30.9496 21.5582C31.3947 21.3058 31.7633 21.2871 31.9753 21.4991C32.1039 21.6277 32.1749 21.8407 32.1712 22.1368C32.1712 22.15 32.1712 22.163 32.17 22.1766V22.1913C32.17 22.2046 32.1689 22.2184 32.168 22.2321C32.168 22.2489 32.1659 22.2658 32.1642 22.2826C32.1625 22.2995 32.1617 22.3123 32.16 22.3272C32.16 22.3315 32.1591 22.3359 32.1585 22.3402C32.1572 22.3534 32.1555 22.3667 32.1538 22.3799C32.1538 22.3841 32.1538 22.388 32.1521 22.3922C32.1503 22.41 32.1476 22.4279 32.1444 22.4456C32.1423 22.462 32.1397 22.4784 32.1365 22.4948C32.1352 22.5042 32.1333 22.5134 32.1318 22.5228C32.1269 22.5496 32.1205 22.5761 32.1128 22.6021C32.0983 22.6507 32.0806 22.6983 32.0597 22.7446C32.0507 22.7648 32.0411 22.7849 32.0313 22.8047C32.0109 22.8455 31.988 22.8873 31.9627 22.9307C31.9501 22.9519 31.9371 22.974 31.9232 22.996L31.9021 23.0295C31.8806 23.0632 31.8582 23.0973 31.8349 23.1317C31.8115 23.1662 31.7865 23.2014 31.7596 23.237C31.7247 23.2844 31.688 23.3328 31.6492 23.3818L31.6199 23.4189C31.5368 23.5222 31.4517 23.6239 31.3647 23.7239L31.2956 23.802L31.2604 23.8416C31.2124 23.8952 31.1642 23.9485 31.1156 24.0014L31.0784 24.0417C31.0537 24.0685 31.0279 24.0956 31.0032 24.1225C30.978 24.1498 30.9524 24.1769 30.9268 24.204L30.8492 24.2857L30.7707 24.3676C30.7445 24.3949 30.7182 24.4226 30.6916 24.4499L30.5318 24.6147C29.7683 25.3977 28.9637 26.1782 28.6915 26.6647C28.6734 26.6965 28.657 26.7291 28.6421 26.7624C28.6035 26.8509 28.5874 26.9266 28.5983 26.9878C28.6019 27.0079 28.609 27.0273 28.6194 27.0448C28.6348 27.0714 28.6534 27.0959 28.6749 27.1177C28.6849 27.1275 28.6952 27.1367 28.7065 27.145C28.7625 27.1849 28.8302 27.2055 28.899 27.2034H28.9204L28.9425 27.2019L28.9647 27.1992L28.9829 27.1966C28.9854 27.1964 28.9878 27.1959 28.9903 27.1953L29.007 27.1921L29.0116 27.191L29.03 27.187L29.0366 27.1853L29.0564 27.1802L29.0799 27.1733C29.0953 27.1685 29.1108 27.1633 29.1266 27.1574C29.1607 27.1454 29.194 27.1315 29.2266 27.1158C29.2349 27.1119 29.2433 27.1081 29.2514 27.1038L29.2765 27.0914C29.3092 27.0748 29.3418 27.0569 29.3746 27.0375C29.4007 27.0221 29.4267 27.0062 29.4527 26.9895L29.4779 26.9727C29.4862 26.9675 29.4947 26.962 29.503 26.9558L29.528 26.939L29.5412 26.9298L29.5774 26.9046C29.6111 26.8812 29.6425 26.8573 29.6745 26.833L29.6773 26.831L29.7278 26.7918C29.7969 26.7372 29.8626 26.6822 29.9219 26.6304L29.9615 26.5956L29.9652 26.5922L29.9857 26.5739C30.0343 26.5305 30.0776 26.4898 30.1138 26.4561L30.1285 26.4418L30.164 26.4081L30.1853 26.3874L30.1927 26.3798L30.1947 26.3778C30.2128 26.3597 30.2128 26.3597 30.2309 26.3414L30.2324 26.3399L30.2392 26.3339C30.2412 26.3316 30.2441 26.3294 30.2473 26.3265L30.2499 26.3241L30.2571 26.3177L30.2953 26.284L30.3167 26.2646C30.3273 26.2556 30.3388 26.2452 30.3504 26.2341L30.3762 26.2115C30.3808 26.2077 30.3853 26.2034 30.39 26.1993L30.4169 26.1757L30.4566 26.1411L30.4775 26.1228C30.5594 26.0515 30.6592 25.9654 30.7735 25.8684L30.8204 25.8289L30.898 25.7639L30.9771 25.6977C31.0806 25.6118 31.1921 25.5205 31.3099 25.4256L31.3873 25.3635C31.4532 25.3111 31.521 25.2575 31.5895 25.2036C31.617 25.182 31.6451 25.1603 31.6737 25.1388C31.7439 25.0846 31.8145 25.0306 31.8853 24.9773C32.0469 24.8553 32.2135 24.7331 32.382 24.6139L32.4545 24.5636C32.505 24.5286 32.5554 24.4938 32.6061 24.4597L32.6518 24.4286C32.7424 24.3676 32.8337 24.3079 32.9258 24.2496L32.9716 24.2208L33.0169 24.1925C33.0623 24.1645 33.1077 24.1366 33.1525 24.1097L33.1975 24.0829L33.2877 24.0304C33.3172 24.0133 33.3466 23.9965 33.376 23.98L33.3937 23.97L33.4637 23.9318C33.4927 23.9159 33.5219 23.9007 33.5507 23.8858L33.594 23.8636L33.6358 23.8423C33.7315 23.7943 33.8288 23.7499 33.9278 23.7092C33.9414 23.7036 33.9548 23.6981 33.9681 23.6923C33.9947 23.6812 34.021 23.671 34.0472 23.6619C34.0734 23.6531 34.0992 23.6439 34.1246 23.6348C34.1478 23.6271 34.1702 23.62 34.192 23.6132L34.1994 23.6109C34.211 23.6073 34.2227 23.604 34.2344 23.6009L34.2378 23.6C34.2615 23.5932 34.2852 23.587 34.3091 23.5814H34.311C34.3462 23.5729 34.3805 23.5657 34.414 23.5601C34.4255 23.5582 34.4368 23.5563 34.4477 23.5548C34.4803 23.5499 34.513 23.5465 34.5458 23.5443C34.5665 23.5428 34.5874 23.5422 34.6081 23.5422H34.6239C34.645 23.5422 34.6654 23.5435 34.6855 23.5456C34.6947 23.5456 34.704 23.5473 34.713 23.5486H34.7168C34.7258 23.5495 34.735 23.551 34.7439 23.5529C34.7527 23.5548 34.7618 23.5561 34.7704 23.5582H34.7734C34.7821 23.5601 34.7902 23.5625 34.7992 23.565C34.8712 23.5844 34.9372 23.6209 34.992 23.6714L34.9969 23.6763L35.0065 23.6857L35.0159 23.6956C35.0914 23.7751 35.154 23.866 35.201 23.9651L35.2084 23.9818C35.2244 24.0195 35.237 24.0585 35.2458 24.0984C35.2703 24.2097 35.2637 24.3256 35.2266 24.4333C35.2106 24.4802 35.191 24.5258 35.1679 24.5695L35.1524 24.5973C35.0937 24.6958 35.0244 24.7875 34.9455 24.8707L34.9286 24.8886C34.8915 24.928 34.8529 24.9662 34.8132 25.0029C34.8005 25.0148 34.7876 25.0266 34.7744 25.0385L34.7544 25.0566C34.713 25.0933 34.6706 25.1291 34.6277 25.1641C34.6202 25.1701 34.6124 25.1761 34.6051 25.1825C34.5752 25.2066 34.5443 25.2311 34.5123 25.2556C34.4019 25.3399 34.2895 25.4213 34.1751 25.4998C34.1077 25.5459 34.038 25.5924 33.9661 25.6397C33.832 25.7276 33.697 25.8137 33.5607 25.898C33.5213 25.9223 33.4818 25.947 33.4415 25.9714C33.0712 26.1993 32.6605 26.4429 32.2226 26.7078L32.1092 26.7767C31.9851 26.8524 31.868 26.9247 31.7579 26.9934L31.7023 27.0285L31.5973 27.0959C31.5557 27.1222 31.5152 27.1482 31.4758 27.1738C31.4461 27.1928 31.4171 27.2117 31.3886 27.2303L31.3325 27.2672C31.3052 27.2851 31.2781 27.303 31.251 27.3213L31.2247 27.338C31.1968 27.3566 31.1697 27.3749 31.1433 27.393L31.1002 27.4224L31.0495 27.4576L31.0028 27.4901C30.929 27.5419 30.8562 27.5948 30.7839 27.6487L30.7586 27.6679C30.7302 27.6893 30.7027 27.7108 30.6762 27.7317L30.6415 27.7594C30.5832 27.8063 30.5303 27.8513 30.4824 27.8942L30.4591 27.9157C30.4457 27.9279 30.4325 27.9401 30.4201 27.9522C30.4113 27.9605 30.4032 27.9689 30.3943 27.9772L30.3821 27.9893C30.3552 28.0162 30.329 28.0439 30.3036 28.0723L30.2911 28.0866C30.2635 28.1186 30.2394 28.1493 30.2181 28.1793L30.2087 28.1928C30.1842 28.2286 30.1625 28.2664 30.1441 28.3058L30.1377 28.3195L30.1337 28.3291L30.1305 28.3374L30.1262 28.3489C30.1249 28.3529 30.1222 28.3598 30.1207 28.3658C30.113 28.3883 30.1074 28.4114 30.1036 28.435L30.1017 28.4476L30.1002 28.4591L30.0993 28.4702V28.5293C30.0993 28.5342 30.0993 28.5393 30.1004 28.5443C30.1006 28.5474 30.101 28.5504 30.1013 28.5534C30.1013 28.5583 30.1027 28.5632 30.1032 28.5683L30.1068 28.589V28.5899C30.1081 28.5965 30.1094 28.6031 30.1111 28.6097C30.1128 28.6163 30.1145 28.6236 30.1166 28.6306C30.1226 28.6519 30.13 28.6729 30.1384 28.6935C30.1384 28.695 30.1398 28.6967 30.1403 28.6982C30.1426 28.7033 30.1447 28.7085 30.1471 28.7136C30.1563 28.7351 30.1667 28.756 30.178 28.7765L30.1898 28.7978L30.2023 28.8192L30.2153 28.8407C30.2175 28.8443 30.22 28.8475 30.2228 28.8507L30.2271 28.8552L30.2316 28.8593L30.2367 28.8633C30.2401 28.8657 30.2437 28.8678 30.2475 28.8699C30.2512 28.8716 30.2554 28.8735 30.2595 28.875C30.264 28.8765 30.2685 28.8778 30.2731 28.8789C30.3817 28.9034 30.605 28.8134 30.9016 28.6567L30.9548 28.6285L31.045 28.5794L31.0893 28.5549C31.1205 28.5379 31.1527 28.5191 31.1853 28.5005L31.245 28.4668C31.6372 28.241 32.1058 27.9509 32.5901 27.6677C32.6353 27.6411 32.6808 27.6148 32.7264 27.5884L32.8179 27.5301C32.8637 27.5037 32.9092 27.4777 32.955 27.4521C33.1497 27.3414 33.347 27.235 33.5464 27.1332L33.6358 27.0878C33.6953 27.0584 33.7542 27.0298 33.8124 27.0019C33.9252 26.9484 34.0391 26.8978 34.1542 26.8498L34.2172 26.8242L34.225 26.8212C34.559 26.6888 34.8619 26.6069 35.1071 26.6069C35.1602 26.6065 35.2131 26.6109 35.2654 26.6199H35.2669C35.2839 26.6229 35.2991 26.6263 35.3146 26.6302H35.3174C35.34 26.6357 35.3622 26.6427 35.3837 26.6513C35.4008 26.6575 35.4174 26.6649 35.4334 26.6736C35.5036 26.7091 35.5637 26.7617 35.6085 26.8264C35.6122 26.8319 35.6158 26.8375 35.6192 26.8434C35.6358 26.8686 35.6501 26.8952 35.6618 26.923C35.6687 26.939 35.6751 26.9556 35.6811 26.9735C35.6872 26.9916 35.6924 27.0089 35.6979 27.0275C35.7378 27.1702 35.7339 27.3213 35.6866 27.4617Z" fill="black"/>
<path id="Vector_4" fill-rule="evenodd" clip-rule="evenodd" d="M33.4653 17.2355V17.1433C33.4653 9.26281 27.0791 2.87451 19.1981 2.87451C11.3175 2.87451 4.9288 9.26318 4.9288 17.1433L4.92861 17.1741C4.92842 17.1947 4.92823 17.215 4.92861 17.2355C4.92951 17.2662 4.92983 17.2969 4.92955 17.3276L4.93068 17.3954L4.93106 17.4198L4.932 17.4534C4.93237 17.4714 4.93294 17.4893 4.93294 17.5074L4.93482 17.5806L4.93784 17.6667L4.93878 17.6949L4.94254 17.784V17.7881L4.94781 17.8923V17.8949C4.9497 17.9305 4.95158 17.9661 4.95384 18.0015C4.95572 18.0344 4.95779 18.0672 4.96005 18.0999L4.96062 18.1058C4.96227 18.1338 4.96416 18.1621 4.96627 18.1901L4.96683 18.1975C4.96871 18.2246 4.97079 18.2519 4.97304 18.2788L4.97342 18.2841L4.97719 18.3311C4.98847 18.4669 5.00165 18.6026 5.01673 18.738L5.01767 18.7465L5.02896 18.8459L5.04196 18.9506C5.05067 19.0203 5.05998 19.0897 5.06982 19.1592C5.0757 19.2012 5.0818 19.243 5.08809 19.2848L5.08903 19.2899C5.10309 19.3844 5.11827 19.4789 5.13459 19.5731C5.18142 19.8463 5.23642 20.1181 5.29953 20.3881L5.30047 20.3925L5.3065 20.4179C5.31215 20.442 5.31779 20.4661 5.32382 20.4904L5.33417 20.4778C5.7484 19.9826 6.34262 19.7096 7.00746 19.7096C7.5403 19.7096 8.08708 19.8856 8.6348 20.233C8.99818 20.4638 9.39998 20.8728 9.81346 21.387C10.196 20.8555 10.7323 20.5024 11.3457 20.406C11.4628 20.3876 11.581 20.3782 11.6993 20.378C13.0996 20.378 13.9429 21.5932 14.2615 22.686C14.4187 23.0554 15.1775 24.7369 16.3215 25.8746C18.0603 27.6119 18.4954 29.4047 17.635 31.3243H17.6378C17.6965 31.3307 17.7555 31.3367 17.8146 31.3421C17.8498 31.3455 17.885 31.3489 17.9202 31.3519L17.9326 31.3531C17.9584 31.3555 17.9844 31.3578 18.0104 31.3597L18.0819 31.3655C18.1501 31.3708 18.2184 31.3755 18.2872 31.38L18.3414 31.3832L18.3845 31.3856L18.4114 31.3871L18.4954 31.3917L18.5184 31.3926L18.6069 31.3964L18.705 31.4001L18.7841 31.4024L18.7972 31.403C18.8138 31.4035 18.8307 31.4043 18.8475 31.4043L18.8654 31.4047C18.9765 31.4073 19.0874 31.4086 19.1985 31.4086H19.3163L19.4007 31.4077C19.4214 31.4065 19.4419 31.4065 19.4626 31.4065H19.4954L19.5238 31.406C19.5349 31.4056 19.5462 31.4052 19.5573 31.4052H19.591L19.6571 31.4033L19.7565 31.3999L19.8661 31.3952C19.8976 31.3939 19.9288 31.3924 19.9603 31.3907L19.994 31.3888L20.0439 31.386L20.0734 31.3843L20.0955 31.383L20.1966 31.3762C20.2303 31.3742 20.264 31.3715 20.2977 31.3689L20.3892 31.3617L20.4538 31.3563L20.5244 31.3499C20.5969 31.3431 20.6692 31.3359 20.7411 31.3284C20.787 31.3233 20.8326 31.3182 20.8783 31.3128L20.9587 31.3032C20.1116 29.3915 20.5502 27.6068 22.282 25.8763C23.4234 24.7358 24.1822 23.0539 24.3403 22.6846C24.6591 21.5917 25.5017 20.3767 26.9023 20.3767C27.0207 20.3768 27.139 20.3861 27.2559 20.4047C27.8688 20.5011 28.4052 20.8543 28.7883 21.3857C29.202 20.8715 29.6036 20.4625 29.967 20.2317C30.5147 19.8843 31.0619 19.7083 31.5942 19.7083C32.1809 19.7083 32.7128 19.921 33.1144 20.3111C33.1364 20.2129 33.1577 20.1146 33.178 20.0159C33.1904 19.9543 33.2027 19.8926 33.2147 19.8306C33.2294 19.7546 33.2433 19.6781 33.2561 19.6017C33.2595 19.581 33.2631 19.5603 33.2671 19.5394C33.2733 19.5068 33.2787 19.4746 33.2838 19.4418L33.2859 19.4294L33.2993 19.3441L33.3124 19.2577L33.3126 19.2567C33.3179 19.2206 33.3234 19.1843 33.3283 19.1479C33.3322 19.1204 33.336 19.0929 33.3396 19.0653L33.3418 19.0494L33.3535 18.9594L33.3631 18.8828C33.3689 18.8324 33.3746 18.7819 33.38 18.7312C33.3825 18.7111 33.3846 18.6908 33.3866 18.6704L33.3885 18.654C33.3921 18.6203 33.3953 18.5868 33.3983 18.5531L33.4058 18.4748C33.4215 18.3012 33.4341 18.1276 33.4439 17.9536V17.9525L33.4489 17.8602L33.4499 17.8395L33.4537 17.752C33.4552 17.719 33.4565 17.6857 33.4576 17.652V17.6496L33.4585 17.6253C33.4595 17.6046 33.4602 17.5838 33.4602 17.5633L33.4606 17.5548C33.4614 17.5356 33.4621 17.5157 33.4621 17.4959L33.4627 17.479C33.4633 17.4592 33.4638 17.4396 33.4638 17.4198L33.4642 17.4031C33.4648 17.3779 33.4653 17.3528 33.4653 17.3276V17.2355ZM15.6591 31.4899C16.789 29.8327 16.709 28.5889 15.1585 27.0393C13.6079 25.4897 12.7055 23.2235 12.7055 23.2235C12.7055 23.2235 12.3686 21.907 11.6004 22.0281C10.8322 22.149 10.2687 24.116 11.877 25.3201C13.4854 26.5241 11.5571 27.3405 10.9381 26.2106C10.3188 25.0806 8.62877 22.1759 7.75231 21.6203C6.87603 21.0647 6.25978 21.3761 6.46633 22.5212C6.56894 23.0896 7.52317 24.0597 8.41469 24.9661C9.31921 25.8859 10.1591 26.7397 9.97971 27.0419C9.62329 27.6422 8.368 26.3368 8.368 26.3368C8.368 26.3368 4.43738 22.76 3.58162 23.6922C2.7929 24.5513 4.00922 25.2817 5.88378 26.4072C6.04325 26.5031 6.20744 26.6017 6.37557 26.7034C8.52013 28.0018 8.68695 28.3443 8.38268 28.8355C8.27028 29.017 7.55235 28.586 6.6693 28.0558C5.16397 27.1521 3.17888 25.9604 2.89872 27.027C2.65602 27.9502 4.11635 28.5158 5.44074 29.0289C6.54409 29.4563 7.55329 29.8472 7.40492 30.3778C7.2511 30.9277 6.41719 30.4691 5.50551 29.9675C4.48219 29.4043 3.36096 28.7873 2.99418 29.4836C2.30054 30.7997 7.77848 32.3491 7.82348 32.3604C9.59335 32.8194 14.0881 33.7921 15.6591 31.4899ZM22.9389 31.4899C21.8088 29.8327 21.889 28.5889 23.4396 27.0393C24.9901 25.4897 25.8927 23.2235 25.8927 23.2235C25.8927 23.2235 26.2294 21.907 26.9976 22.0281C27.7658 22.149 28.3295 24.116 26.721 25.3201C25.1125 26.5241 27.0409 27.3405 27.6602 26.2106C28.2792 25.0806 29.9685 22.1759 30.8448 21.6203C31.7211 21.0647 32.3375 21.3761 32.131 22.5212C32.0283 23.0896 31.0741 24.0599 30.1824 24.9663C29.2781 25.8859 28.4381 26.7397 28.6176 27.0419C28.9738 27.6422 30.2302 26.336 30.2302 26.336C30.2302 26.336 34.1607 22.7592 35.0164 23.6914C35.8051 24.5505 34.5886 25.2811 32.7141 26.4068C32.5546 26.5025 32.3906 26.601 32.2225 26.7028C30.0777 28.001 29.9111 28.3437 30.2154 28.8348C30.3278 29.0163 31.0457 28.5853 31.9286 28.0553C33.4341 27.1515 35.4192 25.9597 35.6993 27.0263C35.942 27.9495 34.4817 28.5152 33.1571 29.0283C32.0538 29.4557 31.0447 29.8464 31.1929 30.3772C31.3468 30.9272 32.1803 30.4683 33.0916 29.9667C34.1149 29.4036 35.2363 28.7864 35.6033 29.4828C36.2969 30.7999 30.8182 32.3476 30.7738 32.3591C29.0039 32.8194 24.5092 33.7921 22.9389 31.4899Z" fill="white"/>
<path id="Vector_5" fill-rule="evenodd" clip-rule="evenodd" d="M23.8328 13.2593C24.0551 13.338 24.2206 13.5777 24.378 13.8055C24.5908 14.1137 24.7889 14.4003 25.0928 14.2387C25.4514 14.0482 25.7454 13.7556 25.9376 13.3979C26.1298 13.0402 26.2115 12.6336 26.1726 12.2294C26.1436 11.9271 26.0479 11.6351 25.8924 11.3743C25.7369 11.1135 25.5254 10.8905 25.2735 10.7212C25.0214 10.552 24.7348 10.4408 24.4347 10.3956C24.1344 10.3505 23.8279 10.3725 23.5372 10.4601C23.1483 10.5771 22.803 10.8068 22.5447 11.1201C22.2866 11.4334 22.1269 11.8162 22.086 12.2201C22.0454 12.6242 22.1254 13.0312 22.3159 13.3898C22.4568 13.6547 22.7693 13.5298 23.0992 13.3979C23.3579 13.2945 23.6272 13.1868 23.8328 13.2593ZM14.1595 13.2595C13.9371 13.3382 13.7714 13.5779 13.614 13.8057C13.4013 14.1137 13.2032 14.4005 12.8993 14.2389C12.6314 14.0964 12.3985 13.8961 12.2171 13.6526C12.0358 13.4091 11.9108 13.1286 11.8509 12.831C11.791 12.5334 11.7978 12.2263 11.8709 11.9316C11.9441 11.637 12.0816 11.3623 12.2734 11.1271C12.4657 10.8921 12.7074 10.7027 12.9816 10.5723C13.2557 10.442 13.5555 10.374 13.859 10.3733C14.1625 10.3727 14.4624 10.4393 14.7371 10.5685C15.0118 10.6976 15.2545 10.886 15.4477 11.1202C15.706 11.4334 15.8657 11.8163 15.9066 12.2204C15.9472 12.6244 15.8672 13.0314 15.6765 13.3899C15.5353 13.6549 15.2227 13.5298 14.8928 13.3979C14.6343 13.2945 14.3651 13.1868 14.1595 13.2595ZM22.3363 22.0619C23.8695 20.8539 24.4326 18.882 24.4326 17.6672C24.4326 16.7069 23.7864 17.0091 22.7522 17.5211L22.694 17.5501C21.7445 18.0202 20.4807 18.6461 19.0935 18.6461C17.706 18.6461 16.4422 18.02 15.4931 17.5499C14.4253 17.021 13.7556 16.6893 13.7556 17.6674C13.7556 18.9204 14.3547 20.9782 15.9994 22.1738C16.2163 21.7332 16.5217 21.3421 16.8967 21.0251C17.2716 20.708 17.7081 20.4719 18.1786 20.3312C18.3428 20.2823 18.5119 20.5649 18.6851 20.8541C18.8521 21.1333 19.0227 21.4188 19.1965 21.4188C19.3813 21.4188 19.5632 21.1375 19.7408 20.8628C19.9262 20.5758 20.107 20.296 20.2819 20.3519C21.1623 20.6346 21.8987 21.2474 22.3363 22.0619Z" fill="black"/>
<path id="Vector_6" d="M22.3363 22.0617C21.5378 22.691 20.4765 23.1129 19.0945 23.1129C17.7959 23.1129 16.7801 22.7405 16 22.1736C16.2171 21.7332 16.5227 21.3421 16.8976 21.0252C17.2724 20.7081 17.7089 20.4718 18.1792 20.331C18.5017 20.2348 18.8433 21.4185 19.1969 21.4185C19.5755 21.4185 19.9402 20.2423 20.2825 20.3517C21.1626 20.6345 21.8988 21.2474 22.3363 22.0617Z" fill="#686868"/>
<path id="Vector_7" fill-rule="evenodd" clip-rule="evenodd" d="M10.4937 14.9675C10.348 15.0656 10.1844 15.134 10.0123 15.1686C9.8401 15.2032 9.66279 15.2036 9.49049 15.1697C9.31819 15.1357 9.15429 15.0681 9.00818 14.9707C8.86207 14.8732 8.73664 14.748 8.63905 14.6019C8.54146 14.4559 8.47366 14.292 8.43952 14.1199C8.40539 13.9476 8.40558 13.7702 8.44009 13.5979C8.4746 13.4258 8.54278 13.2622 8.64067 13.1163C8.73858 12.9705 8.86429 12.8455 9.01061 12.7484C9.3049 12.5531 9.66461 12.4824 10.0109 12.5518C10.3572 12.6212 10.6619 12.8251 10.8582 13.1188C11.0544 13.4125 11.1263 13.7719 11.058 14.1184C10.9896 14.465 10.7867 14.7704 10.4937 14.9675ZM29.588 14.9675C29.4423 15.0656 29.2786 15.134 29.1065 15.1686C28.9345 15.2032 28.7571 15.2036 28.5848 15.1697C28.4125 15.1357 28.2485 15.0681 28.1024 14.9707C27.9563 14.8732 27.8309 14.748 27.7334 14.6019C27.6357 14.4559 27.5679 14.292 27.5338 14.1199C27.4997 13.9476 27.4999 13.7702 27.5344 13.5979C27.5688 13.4258 27.637 13.2622 27.7349 13.1163C27.8328 12.9705 27.9586 12.8455 28.1049 12.7484C28.3992 12.5531 28.759 12.4824 29.1052 12.5518C29.4515 12.6212 29.7561 12.8251 29.9525 13.1188C30.1487 13.4125 30.2206 13.7719 30.1523 14.1184C30.0839 14.465 29.881 14.7704 29.588 14.9675Z" fill="black"/>
</g>
</svg>
